<?xml version="1.0" encoding="UTF-8" standalone="no"?> <svg width="64" height="64" viewBox="0 0 64 64" fill="none" xmlns="http://www.w3.org/2000/svg">
<path d="M9 22H55C56.0609 22 57.0783 22.4214 57.8284 23.1716C58.5786 23.9217 59 24.9391 59 26V55H5V26C5 24.9391 5.42143 23.9217 6.17157 23.1716C6.92172 22.4214 7.93913 22 9 22V22Z" fill="#ADE8F4"/>
<path d="M43 48C40.6103 48.0013 38.2443 47.5253 36.041 46.6C40.817 45.6635 45.1194 43.0971 48.2127 39.3396C51.3061 35.5822 52.9983 30.867 53 26C52.9969 24.6568 52.863 23.3172 52.6 22H9C7.93913 22 6.92172 22.4214 6.17157 23.1716C5.42143 23.9217 5 24.9391 5 26V55H59V48H43Z" fill="#48CAE4"/>
<path d="M38 53V55H26V53H3V57C3 58.0609 3.42143 59.0783 4.17157 59.8284C4.92172 60.5786 5.93913 61 7 61H57C58.0609 61 59.0783 60.5786 59.8284 59.8284C60.5786 59.0783 61 58.0609 61 57V53H38Z" fill="#E9F1F2"/>
<path d="M52 49L49 45L52 41L55 45L52 49Z" fill="#FFFA48"/>
<path d="M12 49L9 45L12 41L15 45L12 49Z" fill="#FFFA48"/>
<path d="M20 46L18 49L20 52L22 49L20 46Z" fill="#FFFA48"/>
<path d="M44 47L42 50L44 53L46 50L44 47Z" fill="#FFFA48"/>
<path d="M8 53H3V57C3 58.0609 3.42143 59.0783 4.17157 59.8284C4.92172 60.5786 5.93913 61 7 61H57C58.0609 61 59.0783 60.5786 59.8284 59.8284C60.5786 59.0783 61 58.0609 61 57H12C10.9391 57 9.92172 56.5786 9.17157 55.8284C8.42143 55.0783 8 54.0609 8 53V53Z" fill="#D0D8DA"/>
<path d="M52 49L49 45L52 41L51 45L52 49Z" fill="#FCEA42"/>
<path d="M44 47L42 50L44 53L43 50L44 47Z" fill="#FCEA42"/>
<path d="M12 49L9 45L12 41L11 45L12 49Z" fill="#FCEA42"/>
<path d="M20 46L18 49L20 52L19 49L20 46Z" fill="#FCEA42"/>
<path d="M32 45C43.598 45 53 35.598 53 24C53 12.402 43.598 3 32 3C20.402 3 11 12.402 11 24C11 35.598 20.402 45 32 45Z" fill="#FFFA48"/>
<path d="M44 37C40.1189 37.0061 36.3122 35.9351 33.0037 33.9061C29.6951 31.8771 27.0145 28.9698 25.2603 25.5077C23.5061 22.0457 22.747 18.1648 23.0675 14.2969C23.3881 10.429 24.7757 6.72599 27.076 3.59998C23.7915 4.39042 20.7464 5.96203 18.1993 8.18128C15.6522 10.4005 13.6785 13.2018 12.4458 16.3472C11.2131 19.4925 10.7579 22.8889 11.1189 26.2478C11.4798 29.6068 12.6463 32.8289 14.5191 35.6405C16.3919 38.4522 18.9158 40.7702 21.8762 42.3976C24.8366 44.025 28.1462 44.9137 31.5236 44.9883C34.901 45.0628 38.2466 44.321 41.2759 42.8258C44.3053 41.3306 46.9289 39.1262 48.924 36.4C47.3122 36.794 45.6593 36.9954 44 37V37Z" fill="#FCEA42"/>
<path d="M56 7C57.1046 7 58 6.10457 58 5C58 3.89543 57.1046 3 56 3C54.8954 3 54 3.89543 54 5C54 6.10457 54.8954 7 56 7Z" fill="#FFFA48"/>
<path d="M5 7C6.10457 7 7 6.10457 7 5C7 3.89543 6.10457 3 5 3C3.89543 3 3 3.89543 3 5C3 6.10457 3.89543 7 5 7Z" fill="#FFFA48"/>
<path d="M59 15C60.1046 15 61 14.1046 61 13C61 11.8954 60.1046 11 59 11C57.8954 11 57 11.8954 57 13C57 14.1046 57.8954 15 59 15Z" fill="#FFFA48"/>
<path d="M8 15C9.10457 15 10 14.1046 10 13C10 11.8954 9.10457 11 8 11C6.89543 11 6 11.8954 6 13C6 14.1046 6.89543 15 8 15Z" fill="#FFFA48"/>
<path d="M32 41C41.3888 41 49 33.3888 49 24C49 14.6112 41.3888 7 32 7C22.6112 7 15 14.6112 15 24C15 33.3888 22.6112 41 32 41Z" fill="#FDC741"/>
<path d="M15 24C14.9978 27.245 15.9251 30.4227 17.672 33.1573C19.419 35.892 21.9126 38.0691 24.8579 39.4312C27.8031 40.7933 31.0769 41.2834 34.292 40.8435C37.507 40.4036 40.5288 39.0522 43 36.949C37.6128 36.6968 32.5296 34.3799 28.8054 30.479C25.0813 26.5782 23.0023 21.3931 23 16C23.0023 13.5683 23.4318 11.156 24.269 8.87299C21.48 10.2952 19.1383 12.4607 17.5026 15.1301C15.8668 17.7996 15.0008 20.8692 15 24Z" fill="#EFAD1B"/>
<path d="M32 35L23 30V18L32 23V35Z" fill="#FDC741"/>
<path d="M32 35L41 30V18L32 23V35Z" fill="#FCEA42"/>
<path d="M23 18L32 23L41 18L32 13L23 18Z" fill="#FFFA48"/>
<path d="M59 14C59.5523 14 60 13.5523 60 13C60 12.4477 59.5523 12 59 12C58.4477 12 58 12.4477 58 13C58 13.5523 58.4477 14 59 14Z" fill="#FDC741"/>
<path d="M56 6C56.5523 6 57 5.55228 57 5C57 4.44772 56.5523 4 56 4C55.4477 4 55 4.44772 55 5C55 5.55228 55.4477 6 56 6Z" fill="#FDC741"/>
<path d="M8 14C8.55228 14 9 13.5523 9 13C9 12.4477 8.55228 12 8 12C7.44772 12 7 12.4477 7 13C7 13.5523 7.44772 14 8 14Z" fill="#FDC741"/>
<path d="M5 6C5.55228 6 6 5.55228 6 5C6 4.44772 5.55228 4 5 4C4.44772 4 4 4.44772 4 5C4 5.55228 4.44772 6 5 6Z" fill="#FDC741"/>
<path d="M61 52H60V26C59.9984 24.6744 59.4711 23.4036 58.5338 22.4662C57.5964 21.5289 56.3256 21.0016 55 21H53.784C53.4456 18.5594 52.6992 16.1931 51.576 14H56.184C56.4199 14.6672 56.8841 15.2296 57.4945 15.5876C58.1049 15.9457 58.8222 16.0765 59.5197 15.9568C60.2172 15.8371 60.85 15.4747 61.3061 14.9337C61.7623 14.3926 62.0124 13.7077 62.0124 13C62.0124 12.2923 61.7623 11.6074 61.3061 11.0663C60.85 10.5253 60.2172 10.1629 59.5197 10.0432C58.8222 9.92354 58.1049 10.0543 57.4945 10.4124C56.8841 10.7705 56.4199 11.3328 56.184 12H51C50.8228 12.0045 50.6501 12.0567 50.5 12.151C49.7684 11.01 48.9332 9.93879 48.005 8.95101L51.376 6.00001H53.184C53.4199 6.66722 53.8841 7.22956 54.4945 7.58764C55.1049 7.94572 55.8222 8.07647 56.5197 7.9568C57.2172 7.83713 57.85 7.47474 58.3061 6.93367C58.7623 6.3926 59.0124 5.70769 59.0124 5.00001C59.0124 4.29232 58.7623 3.60741 58.3061 3.06635C57.85 2.52528 57.2172 2.16288 56.5197 2.04321C55.8222 1.92354 55.1049 2.0543 54.4945 2.41237C53.8841 2.77045 53.4199 3.33279 53.184 4.00001H51C50.7575 4.00005 50.5233 4.08818 50.341 4.24801L46.57 7.54801C45.9915 7.03386 45.3863 6.55053 44.757 6.10001C44.6511 6.01247 44.5283 5.9477 44.3963 5.90972C44.2643 5.87174 44.1258 5.86138 43.9896 5.87928C43.8534 5.89717 43.7223 5.94295 43.6046 6.01374C43.4868 6.08454 43.3849 6.17883 43.3053 6.29075C43.2256 6.40267 43.1698 6.5298 43.1414 6.66423C43.1131 6.79865 43.1127 6.93748 43.1403 7.07206C43.168 7.20663 43.2231 7.33406 43.3022 7.4464C43.3813 7.55874 43.4826 7.65358 43.6 7.72501C47.4759 10.4954 50.2342 14.5597 51.3772 19.1848C52.5203 23.8099 51.9729 28.6912 49.8337 32.9481C47.6946 37.2051 44.1046 40.5575 39.7113 42.4006C35.318 44.2436 30.4107 44.456 25.8746 42.9993C21.3385 41.5427 17.4723 38.513 14.9734 34.4567C12.4745 30.4005 11.5075 25.5847 12.2467 20.8782C12.9859 16.1717 15.3828 11.8842 19.0049 8.78936C22.6269 5.69448 27.2358 3.99589 32 4.00001C34.8656 3.99916 37.6974 4.61975 40.3 5.81901C40.4202 5.87929 40.5514 5.9147 40.6856 5.92312C40.8198 5.93154 40.9544 5.91281 41.0812 5.86803C41.208 5.82325 41.3245 5.75335 41.4236 5.66252C41.5228 5.57169 41.6027 5.46178 41.6584 5.33938C41.7141 5.21697 41.7445 5.08459 41.7479 4.95015C41.7513 4.8157 41.7275 4.68196 41.678 4.55692C41.6285 4.43188 41.5542 4.31811 41.4597 4.22242C41.3652 4.12673 41.2524 4.05108 41.128 4.00001C37.3182 2.2502 33.0861 1.631 28.9346 2.21598C24.7832 2.80097 20.887 4.56554 17.709 7.30001L14.709 4.30001C14.6165 4.20564 14.5062 4.13054 14.3845 4.07904C14.2628 4.02755 14.1321 4.00069 14 4.00001H7.81601C7.58011 3.33279 7.11594 2.77045 6.50553 2.41237C5.89512 2.0543 5.17777 1.92354 4.48027 2.04321C3.78278 2.16288 3.15004 2.52528 2.6939 3.06635C2.23776 3.60741 1.98758 4.29232 1.98758 5.00001C1.98758 5.70769 2.23776 6.3926 2.6939 6.93367C3.15004 7.47474 3.78278 7.83713 4.48027 7.9568C5.17777 8.07647 5.89512 7.94572 6.50553 7.58764C7.11594 7.22956 7.58011 6.66722 7.81601 6.00001H13.586L16.249 8.66301C15.252 9.6864 14.3565 10.804 13.575 12H10.816C10.5801 11.3328 10.1159 10.7705 9.50553 10.4124C8.89512 10.0543 8.17777 9.92354 7.48027 10.0432C6.78278 10.1629 6.15004 10.5253 5.6939 11.0663C5.23776 11.6074 4.98758 12.2923 4.98758 13C4.98758 13.7077 5.23776 14.3926 5.6939 14.9337C6.15004 15.4747 6.78278 15.8371 7.48027 15.9568C8.17777 16.0765 8.89512 15.9457 9.50553 15.5876C10.1159 15.2296 10.5801 14.6672 10.816 14H12.416C11.2927 16.1924 10.5489 18.5592 10.216 21H9.00001C7.67441 21.0016 6.40356 21.5289 5.46623 22.4662C4.52889 23.4036 4.00159 24.6744 4.00001 26V52H3.00001C2.73479 52 2.48044 52.1054 2.2929 52.2929C2.10536 52.4804 2.00001 52.7348 2.00001 53V57C2.00159 58.3256 2.52889 59.5964 3.46623 60.5338C4.40356 61.4711 5.67441 61.9984 7.00001 62H38C38.2652 62 38.5196 61.8947 38.7071 61.7071C38.8947 61.5196 39 61.2652 39 61C39 60.7348 38.8947 60.4804 38.7071 60.2929C38.5196 60.1054 38.2652 60 38 60H7.00001C6.20436 60 5.4413 59.6839 4.87869 59.1213C4.31608 58.5587 4.00001 57.7957 4.00001 57V54H25V55C25 55.2652 25.1054 55.5196 25.2929 55.7071C25.4804 55.8947 25.7348 56 26 56H38C38.2652 56 38.5196 55.8947 38.7071 55.7071C38.8947 55.5196 39 55.2652 39 55V54H60V57C60 57.7957 59.6839 58.5587 59.1213 59.1213C58.5587 59.6839 57.7957 60 57 60H42C41.7348 60 41.4804 60.1054 41.2929 60.2929C41.1054 60.4804 41 60.7348 41 61C41 61.2652 41.1054 61.5196 41.2929 61.7071C41.4804 61.8947 41.7348 62 42 62H57C58.3256 61.9984 59.5964 61.4711 60.5338 60.5338C61.4711 59.5964 61.9984 58.3256 62 57V53C62 52.7348 61.8947 52.4804 61.7071 52.2929C61.5196 52.1054 61.2652 52 61 52ZM59 12C59.1978 12 59.3911 12.0587 59.5556 12.1685C59.72 12.2784 59.8482 12.4346 59.9239 12.6173C59.9996 12.8 60.0194 13.0011 59.9808 13.1951C59.9422 13.3891 59.847 13.5673 59.7071 13.7071C59.5673 13.847 59.3891 13.9422 59.1951 13.9808C59.0011 14.0194 58.8001 13.9996 58.6173 13.9239C58.4346 13.8482 58.2784 13.72 58.1685 13.5556C58.0587 13.3911 58 13.1978 58 13C58 12.7348 58.1054 12.4804 58.2929 12.2929C58.4804 12.1054 58.7348 12 59 12ZM56 4.00001C56.1978 4.00001 56.3911 4.05866 56.5556 4.16854C56.72 4.27842 56.8482 4.4346 56.9239 4.61732C56.9996 4.80005 57.0194 5.00112 56.9808 5.1951C56.9422 5.38908 56.847 5.56726 56.7071 5.70711C56.5673 5.84697 56.3891 5.94221 56.1951 5.98079C56.0011 6.01938 55.8001 5.99957 55.6173 5.92389C55.4346 5.8482 55.2784 5.72003 55.1685 5.55558C55.0587 5.39113 55 5.19779 55 5.00001C55 4.73479 55.1054 4.48044 55.2929 4.2929C55.4804 4.10536 55.7348 4.00001 56 4.00001V4.00001ZM5.00001 6.00001C4.80223 6.00001 4.60889 5.94136 4.44444 5.83148C4.27999 5.72159 4.15181 5.56542 4.07613 5.38269C4.00044 5.19996 3.98064 4.9989 4.01922 4.80492C4.05781 4.61093 4.15305 4.43275 4.2929 4.2929C4.43275 4.15305 4.61094 4.05781 4.80492 4.01922C4.9989 3.98064 5.19996 4.00044 5.38269 4.07613C5.56542 4.15181 5.72159 4.27999 5.83148 4.44444C5.94136 4.60889 6.00001 4.80222 6.00001 5.00001C6.00001 5.26522 5.89465 5.51958 5.70711 5.70711C5.51958 5.89465 5.26522 6.00001 5.00001 6.00001ZM8.00001 14C7.80223 14 7.60889 13.9414 7.44444 13.8315C7.27999 13.7216 7.15181 13.5654 7.07613 13.3827C7.00044 13.2 6.98064 12.9989 7.01922 12.8049C7.05781 12.6109 7.15305 12.4328 7.2929 12.2929C7.43275 12.153 7.61094 12.0578 7.80492 12.0192C7.9989 11.9806 8.19996 12.0004 8.38269 12.0761C8.56542 12.1518 8.72159 12.28 8.83148 12.4444C8.94136 12.6089 9.00001 12.8022 9.00001 13C9.00001 13.2652 8.89465 13.5196 8.70711 13.7071C8.51958 13.8946 8.26522 14 8.00001 14V14ZM19.2 49L20 47.8L20.8 49L20 50.2L19.2 49ZM38 52C37.7348 52 37.4804 52.1054 37.2929 52.2929C37.1054 52.4804 37 52.7348 37 53V54H27V53C27 52.7348 26.8946 52.4804 26.7071 52.2929C26.5196 52.1054 26.2652 52 26 52H21.2L22.83 49.555C22.9396 49.3907 22.9982 49.1976 22.9982 49C22.9982 48.8025 22.9396 48.6093 22.83 48.445L20.83 45.445C20.7333 45.3157 20.6077 45.2107 20.4633 45.1383C20.3188 45.066 20.1595 45.0283 19.998 45.0283C19.8365 45.0283 19.6772 45.066 19.5328 45.1383C19.3883 45.2107 19.2628 45.3157 19.166 45.445L17.166 48.445C17.0564 48.6093 16.9979 48.8025 16.9979 49C16.9979 49.1976 17.0564 49.3907 17.166 49.555L18.8 52H6.00001V26C6.00001 25.2044 6.31608 24.4413 6.87869 23.8787C7.4413 23.3161 8.20436 23 9.00001 23H10.025C10.01 23.332 10 23.665 10 24C10 29.8348 12.3179 35.4306 16.4437 39.5564C20.5695 43.6822 26.1652 46 32 46C37.8348 46 43.4306 43.6822 47.5564 39.5564C51.6822 35.4306 54 29.8348 54 24C54 23.665 53.985 23.333 53.97 23H55C55.7957 23 56.5587 23.3161 57.1213 23.8787C57.6839 24.4413 58 25.2044 58 26V52H45.868L46.832 50.555C46.9416 50.3907 47.0002 50.1976 47.0002 50C47.0002 49.8025 46.9416 49.6093 46.832 49.445L44.832 46.445C44.7353 46.3157 44.6097 46.2107 44.4653 46.1383C44.3208 46.066 44.1615 46.0283 44 46.0283C43.8385 46.0283 43.6792 46.066 43.5348 46.1383C43.3903 46.2107 43.2648 46.3157 43.168 46.445L41.168 49.445C41.0584 49.6093 40.9999 49.8025 40.9999 50C40.9999 50.1976 41.0584 50.3907 41.168 50.555L42.132 52H38ZM43.2 50L44 48.8L44.8 50L44 51.2L43.2 50Z" fill="#323232"/>
<path d="M53 58C53.5523 58 54 57.5523 54 57C54 56.4477 53.5523 56 53 56C52.4477 56 52 56.4477 52 57C52 57.5523 52.4477 58 53 58Z" fill="#323232"/>
<path d="M57 58C57.5523 58 58 57.5523 58 57C58 56.4477 57.5523 56 57 56C56.4477 56 56 56.4477 56 57C56 57.5523 56.4477 58 57 58Z" fill="#323232"/>
<path d="M7 58C7.55228 58 8 57.5523 8 57C8 56.4477 7.55228 56 7 56C6.44772 56 6 56.4477 6 57C6 57.5523 6.44772 58 7 58Z" fill="#323232"/>
<path d="M11 58C11.5523 58 12 57.5523 12 57C12 56.4477 11.5523 56 11 56C10.4477 56 10 56.4477 10 57C10 57.5523 10.4477 58 11 58Z" fill="#323232"/>
<path d="M19 25C19.5523 25 20 24.5523 20 24C20 23.4477 19.5523 23 19 23C18.4477 23 18 23.4477 18 24C18 24.5523 18.4477 25 19 25Z" fill="#323232"/>
<path d="M45 25C45.5523 25 46 24.5523 46 24C46 23.4477 45.5523 23 45 23C44.4477 23 44 23.4477 44 24C44 24.5523 44.4477 25 45 25Z" fill="#323232"/>
<path d="M20.7 36.723C20.5372 36.931 20.4632 37.1949 20.4943 37.4572C20.5254 37.7195 20.659 37.9589 20.866 38.123C24.0295 40.642 27.9561 42.0093 32 42C35.5601 42 39.0402 40.9443 42.0003 38.9665C44.9603 36.9886 47.2675 34.1774 48.6298 30.8883C49.9922 27.5992 50.3487 23.98 49.6541 20.4884C48.9596 16.9967 47.2453 13.7894 44.7279 11.2721C42.2106 8.75474 39.0033 7.04041 35.5116 6.34587C32.02 5.65134 28.4008 6.0078 25.1117 7.37018C21.8226 8.73255 19.0114 11.0397 17.0335 13.9997C15.0557 16.9598 14 20.4399 14 24C13.9898 28.0431 15.3556 31.9693 17.873 35.133C17.9543 35.2361 18.0552 35.3221 18.1698 35.3863C18.2844 35.4504 18.4105 35.4913 18.541 35.5066C18.6714 35.522 18.8036 35.5115 18.9299 35.4758C19.0563 35.4401 19.1744 35.3799 19.2775 35.2985C19.3806 35.2172 19.4666 35.1163 19.5307 35.0017C19.5949 34.8871 19.6358 34.761 19.6511 34.6305C19.6665 34.5001 19.656 34.3679 19.6203 34.2416C19.5846 34.1152 19.5244 33.9971 19.443 33.894C17.2052 31.0826 15.9909 27.5933 16 24C16 20.8355 16.9384 17.7421 18.6965 15.1109C20.4546 12.4797 22.9534 10.4289 25.8771 9.21794C28.8007 8.00693 32.0177 7.69008 35.1214 8.30744C38.2251 8.92481 41.0761 10.4487 43.3137 12.6863C45.5513 14.9239 47.0752 17.7749 47.6926 20.8786C48.3099 23.9823 47.9931 27.1993 46.7821 30.1229C45.5711 33.0466 43.5203 35.5454 40.8891 37.3035C38.2579 39.0616 35.1645 40 32 40C28.4067 40.0091 24.9174 38.7948 22.106 36.557C22.0028 36.4754 21.8846 36.415 21.7581 36.3792C21.6315 36.3434 21.4992 36.3329 21.3686 36.3484C21.238 36.3638 21.1117 36.4048 20.997 36.4691C20.8822 36.5334 20.7813 36.6197 20.7 36.723V36.723Z" fill="#323232"/>
<path d="M41 27C41.2652 27 41.5196 26.8946 41.7071 26.7071C41.8946 26.5196 42 26.2652 42 26V18C42 17.8217 41.9524 17.6467 41.862 17.493C41.7716 17.3393 41.6418 17.2126 41.486 17.126L32.486 12.126C32.3374 12.0433 32.1701 11.9999 32 11.9999C31.8299 11.9999 31.6626 12.0433 31.514 12.126L22.514 17.126C22.3582 17.2126 22.2284 17.3393 22.138 17.493C22.0476 17.6467 22 17.8217 22 18V30C22 30.1783 22.0476 30.3533 22.138 30.507C22.2284 30.6606 22.3582 30.7873 22.514 30.874L31.514 35.874C31.6626 35.9566 31.8299 36 32 36C32.1701 36 32.3374 35.9566 32.486 35.874L41.486 30.874C41.7178 30.7451 41.8889 30.5294 41.9617 30.2743C42.0344 30.0193 42.0029 29.7458 41.874 29.514C41.7451 29.2822 41.5294 29.1111 41.2744 29.0383C41.0193 28.9656 40.7458 28.9971 40.514 29.126L33 33.3V23.588L40 19.7V26C40 26.2652 40.1054 26.5196 40.2929 26.7071C40.4804 26.8946 40.7348 27 41 27ZM32 14.144L38.941 18L32 21.856L25.059 18L32 14.144ZM24 19.7L31 23.589V33.3L24 29.412V19.7Z" fill="#323232"/>
<path d="M51.2 49.6C51.2931 49.7242 51.4139 49.825 51.5528 49.8945C51.6916 49.9639 51.8448 50 52 50C52.1552 50 52.3084 49.9639 52.4472 49.8945C52.5861 49.825 52.7069 49.7242 52.8 49.6L55.8 45.6C55.9298 45.4269 56 45.2164 56 45C56 44.7837 55.9298 44.5731 55.8 44.4L52.8 40.4C52.7028 40.2819 52.5807 40.1868 52.4423 40.1215C52.304 40.0562 52.153 40.0223 52 40.0223C51.847 40.0223 51.696 40.0562 51.5577 40.1215C51.4193 40.1868 51.2972 40.2819 51.2 40.4L48.2 44.4C48.0702 44.5731 48 44.7837 48 45C48 45.2164 48.0702 45.4269 48.2 45.6L51.2 49.6ZM52 42.667L53.75 45L52 47.333L50.25 45L52 42.667Z" fill="#323232"/>
<path d="M12.8 40.4C12.7028 40.2819 12.5807 40.1868 12.4423 40.1215C12.304 40.0562 12.153 40.0223 12 40.0223C11.847 40.0223 11.696 40.0562 11.5577 40.1215C11.4193 40.1868 11.2972 40.2819 11.2 40.4L8.2 44.4C8.07018 44.5731 8 44.7837 8 45C8 45.2164 8.07018 45.4269 8.2 45.6L11.2 49.6C11.2931 49.7242 11.4139 49.825 11.5528 49.8945C11.6916 49.9639 11.8448 50 12 50C12.1552 50 12.3084 49.9639 12.4472 49.8945C12.5861 49.825 12.7069 49.7242 12.8 49.6L15.8 45.6C15.9298 45.4269 16 45.2164 16 45C16 44.7837 15.9298 44.5731 15.8 44.4L12.8 40.4ZM12 47.333L10.25 45L12 42.667L13.75 45L12 47.333Z" fill="#323232"/>
</svg>
