<?xml version="1.0" encoding="iso-8859-1"?>
<!-- Generator: Adobe Illustrator 23.1.1, SVG Export Plug-In . SVG Version: 6.00 Build 0)  -->
<svg version="1.1" id="LineColor" xmlns="http://www.w3.org/2000/svg" xmlns:xlink="http://www.w3.org/1999/xlink" x="0px" y="0px"
	 viewBox="0 0 64 64" style="enable-background:new 0 0 64 64;" xml:space="preserve">
<circle style="fill:#E4F2F4;" cx="32" cy="32" r="31"/>
<path style="fill:#FFFFFF;" d="M54.002,22.116c-0.711,0-1.398-0.379-1.761-1.048c-1.939-3.582-4.803-6.597-8.282-8.719
	c-0.943-0.575-1.241-1.806-0.666-2.749c0.574-0.942,1.805-1.24,2.748-0.666c4.082,2.49,7.442,6.027,9.718,10.229
	c0.526,0.971,0.165,2.185-0.807,2.711C54.649,22.039,54.323,22.116,54.002,22.116z"/>
<path style="fill:#FFFFFF;" d="M38.002,9.725c-0.159,0-0.319-0.019-0.48-0.059c-0.305-0.075-0.611-0.144-0.92-0.207
	c-1.083-0.22-1.781-1.276-1.562-2.359c0.221-1.082,1.279-1.781,2.358-1.561c0.363,0.074,0.723,0.155,1.08,0.243
	c1.072,0.264,1.728,1.348,1.464,2.42C39.718,9.115,38.9,9.725,38.002,9.725z"/>
<circle style="fill:#FFD572;" cx="30" cy="37" r="21"/>
<polygon style="fill:#FCB765;" points="30,52 17,44 17,30 30,22 43,30 43,44 "/>
<path style="fill:#3B3344;" d="M32,64C14.355,64,0,49.645,0,32S14.355,0,32,0s32,14.355,32,32S49.645,64,32,64z M32,2
	C15.458,2,2,15.458,2,32s13.458,30,30,30s30-13.458,30-30S48.542,2,32,2z"/>
<path style="fill:#3B3344;" d="M54.002,23.116c-1.104,0-2.115-0.603-2.64-1.572c-1.856-3.427-4.597-6.312-7.924-8.341
	c-0.685-0.417-1.165-1.076-1.354-1.855c-0.188-0.779-0.063-1.584,0.354-2.269c0.859-1.41,2.708-1.86,4.121-0.999
	c4.233,2.582,7.718,6.25,10.077,10.607c0.382,0.704,0.467,1.516,0.238,2.284s-0.743,1.401-1.448,1.783
	C54.991,22.991,54.498,23.116,54.002,23.116z M45.002,9.642c-0.338,0-0.667,0.17-0.855,0.479c-0.139,0.229-0.181,0.497-0.118,0.756
	c0.062,0.26,0.224,0.479,0.451,0.618c3.629,2.213,6.617,5.359,8.641,9.097c0.255,0.47,0.883,0.663,1.355,0.403
	c0.235-0.127,0.407-0.338,0.483-0.594s0.048-0.526-0.079-0.761c-2.192-4.048-5.429-7.455-9.359-9.853
	C45.358,9.689,45.179,9.642,45.002,9.642z"/>
<path style="fill:#3B3344;" d="M38.002,10.725c-0.24,0-0.482-0.029-0.719-0.087c-0.293-0.072-0.586-0.138-0.882-0.198
	c-1.62-0.33-2.67-1.917-2.342-3.538c0.161-0.786,0.617-1.461,1.286-1.904s1.473-0.597,2.253-0.438
	c0.375,0.076,0.748,0.161,1.119,0.251c1.605,0.396,2.591,2.024,2.195,3.63C40.582,9.787,39.385,10.725,38.002,10.725z M36.999,6.5
	c-0.194,0-0.384,0.057-0.55,0.167c-0.224,0.148-0.376,0.373-0.43,0.634c-0.109,0.54,0.241,1.069,0.781,1.179
	c0.322,0.066,0.643,0.137,0.96,0.216c0.541,0.131,1.081-0.205,1.211-0.732c0.131-0.535-0.197-1.078-0.732-1.21
	c-0.344-0.085-0.689-0.163-1.04-0.234C37.133,6.506,37.065,6.5,36.999,6.5z"/>
<path style="fill:#3B3344;" d="M30,53c-0.182,0-0.363-0.049-0.524-0.148l-13-8C16.18,44.669,16,44.347,16,44V30
	c0-0.347,0.18-0.669,0.476-0.852l13-8c0.322-0.198,0.727-0.198,1.049,0l13,8C43.82,29.331,44,29.653,44,30v14
	c0,0.347-0.18,0.669-0.476,0.852l-13,8C30.363,52.951,30.182,53,30,53z M18,43.441l12,7.384l12-7.384V30.559l-12-7.384l-12,7.384
	V43.441z"/>
<rect x="22" y="33" style="fill:#3B3344;" width="2" height="8"/>
<path style="fill:#3B3344;" d="M32,41h-4c-0.553,0-1-0.448-1-1v-6c0-0.552,0.447-1,1-1h4c0.553,0,1,0.448,1,1v6
	C33,40.552,32.553,41,32,41z M29,39h2v-4h-2V39z"/>
<rect x="36" y="33" style="fill:#3B3344;" width="2" height="8"/>
<path style="fill:#3B3344;" d="M30,59C17.869,59,8,49.131,8,37s9.869-22,22-22s22,9.869,22,22S42.131,59,30,59z M30,17
	c-11.028,0-20,8.972-20,20s8.972,20,20,20s20-8.972,20-20S41.028,17,30,17z"/>
</svg>
