<?xml version="1.0" encoding="UTF-8" standalone="no"?> <svg width="512" height="512" viewBox="0 0 512 512" fill="none" xmlns="http://www.w3.org/2000/svg">
<path d="M408 416C405.953 416 403.905 415.219 402.343 413.657L314.343 325.657C311.218 322.533 311.218 317.468 314.343 314.344C317.467 311.22 322.532 311.22 325.656 314.344L413.656 402.344C416.781 405.468 416.781 410.533 413.656 413.657C412.095 415.219 410.047 416 408 416Z" fill="#729DE0"/>
<path d="M104 416C101.953 416 99.9048 415.219 98.3428 413.657C95.2178 410.533 95.2178 405.468 98.3428 402.344L186.343 314.344C189.467 311.22 194.532 311.22 197.656 314.344C200.781 317.468 200.781 322.533 197.656 325.657L109.656 413.657C108.095 415.219 106.047 416 104 416Z" fill="#729DE0"/>
<path d="M192 200C189.953 200 187.905 199.219 186.343 197.657L98.3428 109.657C95.2178 106.533 95.2178 101.468 98.3428 98.344C101.467 95.22 106.532 95.22 109.656 98.344L197.656 186.344C200.781 189.468 200.781 194.533 197.656 197.657C196.095 199.219 194.047 200 192 200Z" fill="#729DE0"/>
<path d="M320 200C317.953 200 315.905 199.219 314.343 197.657C311.218 194.533 311.218 189.468 314.343 186.344L402.343 98.344C405.467 95.22 410.532 95.22 413.656 98.344C416.781 101.468 416.781 106.533 413.656 109.657L325.656 197.657C324.095 199.219 322.047 200 320 200Z" fill="#729DE0"/>
<path d="M440 128L392 104V48L440 72V128Z" fill="#FFD980"/>
<path d="M440 128L488 104V48L440 72V128Z" fill="#CDAF67"/>
<path d="M440 24L488 48L440 72L392 48L440 24Z" fill="#99834D"/>
<path d="M72 128L24 104V48L72 72V128Z" fill="#FFD980"/>
<path d="M72 128L120 104V48L72 72V128Z" fill="#CDAF67"/>
<path d="M72 24L120 48L72 72L24 48L72 24Z" fill="#99834D"/>
<path d="M440 488L392 464V408L440 432V488Z" fill="#FFD980"/>
<path d="M440 488L488 464V408L440 432V488Z" fill="#CDAF67"/>
<path d="M440 384L488 408L440 432L392 408L440 384Z" fill="#99834D"/>
<path d="M72 488L24 464V408L72 432V488Z" fill="#FFD980"/>
<path d="M72 488L120 464V408L72 432V488Z" fill="#CDAF67"/>
<path d="M72 384L120 408L72 432L24 408L72 384Z" fill="#99834D"/>
<path d="M256 168C251.582 168 248 164.418 248 160V80C248 75.582 251.582 72 256 72C260.418 72 264 75.582 264 80V160C264 164.418 260.418 168 256 168Z" fill="#729DE0"/>
<path d="M256 440C251.582 440 248 436.418 248 432V352C248 347.582 251.582 344 256 344C260.418 344 264 347.582 264 352V432C264 436.418 260.418 440 256 440Z" fill="#729DE0"/>
<path d="M160 264H80C75.582 264 72 260.418 72 256C72 251.582 75.582 248 80 248H160C164.418 248 168 251.582 168 256C168 260.418 164.418 264 160 264Z" fill="#729DE0"/>
<path d="M432 264H352C347.582 264 344 260.418 344 256C344 251.582 347.582 248 352 248H432C436.418 248 440 251.582 440 256C440 260.418 436.418 264 432 264Z" fill="#729DE0"/>
<path d="M256 360C313.438 360 360 313.438 360 256C360 198.562 313.438 152 256 152C198.562 152 152 198.562 152 256C152 313.438 198.562 360 256 360Z" fill="#FFD980"/>
<path d="M256 488C273.673 488 288 473.673 288 456C288 438.327 273.673 424 256 424C238.327 424 224 438.327 224 456C224 473.673 238.327 488 256 488Z" fill="#6BD67E"/>
<path d="M256 88C273.673 88 288 73.6731 288 56C288 38.3269 273.673 24 256 24C238.327 24 224 38.3269 224 56C224 73.6731 238.327 88 256 88Z" fill="#6BD67E"/>
<path d="M56 288C73.6731 288 88 273.673 88 256C88 238.327 73.6731 224 56 224C38.3269 224 24 238.327 24 256C24 273.673 38.3269 288 56 288Z" fill="#6BD67E"/>
<path d="M456 288C473.673 288 488 273.673 488 256C488 238.327 473.673 224 456 224C438.327 224 424 238.327 424 256C424 273.673 438.327 288 456 288Z" fill="#6BD67E"/>
<path d="M306.593 256C314.763 249.395 320 239.3 320 228C320 208.149 303.851 192 284 192H280V184C280 179.582 276.418 176 272 176C267.582 176 264 179.582 264 184V192H248V184C248 179.582 244.418 176 240 176C235.582 176 232 179.582 232 184V192H216H200C195.582 192 192 195.582 192 200C192 204.418 195.582 208 200 208H208V256V304H200C195.582 304 192 307.582 192 312C192 316.418 195.582 320 200 320H216H232V328C232 332.418 235.582 336 240 336C244.418 336 248 332.418 248 328V320H264V328C264 332.418 267.582 336 272 336C276.418 336 280 332.418 280 328V320H284C303.851 320 320 303.851 320 284C320 272.7 314.762 262.605 306.593 256ZM304 228C304 239.028 295.028 248 284 248H224V208H284C295.028 208 304 216.972 304 228ZM284 304H224V264H284C295.028 264 304 272.972 304 284C304 295.028 295.028 304 284 304Z" fill="#97814C"/>
<path d="M376 168C371.582 168 368 164.418 368 160V144H352C347.582 144 344 140.418 344 136C344 131.582 347.582 128 352 128H376C380.418 128 384 131.582 384 136V160C384 164.418 380.418 168 376 168Z" fill="#324462"/>
<path d="M376 384H352C347.582 384 344 380.418 344 376C344 371.582 347.582 368 352 368H368V352C368 347.582 371.582 344 376 344C380.418 344 384 347.582 384 352V376C384 380.418 380.418 384 376 384Z" fill="#324462"/>
<path d="M136 168C131.582 168 128 164.418 128 160V136C128 131.582 131.582 128 136 128H160C164.418 128 168 131.582 168 136C168 140.418 164.418 144 160 144H144V160C144 164.418 140.418 168 136 168Z" fill="#324462"/>
<path d="M160 384H136C131.582 384 128 380.418 128 376V352C128 347.582 131.582 344 136 344C140.418 344 144 347.582 144 352V368H160C164.418 368 168 371.582 168 376C168 380.418 164.418 384 160 384Z" fill="#324462"/>
<path d="M272 128C269.953 128 267.905 127.219 266.343 125.657L256 115.313L245.657 125.656C242.533 128.78 237.468 128.78 234.344 125.656C231.219 122.532 231.219 117.467 234.344 114.343L250.344 98.343C253.468 95.219 258.533 95.219 261.657 98.343L277.657 114.343C280.782 117.467 280.782 122.532 277.657 125.656C276.095 127.219 274.047 128 272 128Z" fill="#324462"/>
<path d="M256 416C253.953 416 251.905 415.219 250.343 413.657L234.343 397.657C231.218 394.533 231.218 389.468 234.343 386.344C237.467 383.22 242.532 383.22 245.656 386.344L256 396.687L266.343 386.344C269.467 383.22 274.532 383.22 277.656 386.344C280.781 389.468 280.781 394.533 277.656 397.657L261.656 413.657C260.095 415.219 258.047 416 256 416Z" fill="#324462"/>
<path d="M120 280C117.953 280 115.905 279.219 114.343 277.657L98.3428 261.657C95.2178 258.533 95.2178 253.468 98.3428 250.344L114.343 234.344C117.467 231.22 122.532 231.22 125.656 234.344C128.781 237.468 128.781 242.533 125.656 245.657L115.313 256L125.656 266.343C128.781 269.467 128.781 274.532 125.656 277.656C124.095 279.219 122.047 280 120 280Z" fill="#324462"/>
<path d="M392 280C389.953 280 387.905 279.219 386.343 277.657C383.218 274.533 383.218 269.468 386.343 266.344L396.687 256L386.344 245.657C383.219 242.533 383.219 237.468 386.344 234.344C389.468 231.22 394.533 231.22 397.657 234.344L413.657 250.344C416.782 253.468 416.782 258.533 413.657 261.657L397.657 277.657C396.095 279.219 394.047 280 392 280Z" fill="#324462"/>
<path d="M320 228C320 208.149 303.851 192 284 192H280V184C280 179.582 276.418 176 272 176C267.582 176 264 179.582 264 184V192H248V184C248 179.582 244.418 176 240 176C235.582 176 232 179.582 232 184V192H216H200C195.582 192 192 195.582 192 200C192 204.418 195.582 208 200 208H208V256V304H200C195.582 304 192 307.582 192 312C192 316.418 195.582 320 200 320H216H232V328C232 332.418 235.582 336 240 336C244.418 336 248 332.418 248 328V320H264V328C264 332.418 267.582 336 272 336C276.418 336 280 332.418 280 328V320H284C303.851 320 320 303.851 320 284C320 272.7 314.762 262.605 306.593 256C314.762 249.395 320 239.3 320 228ZM304 284C304 295.028 295.028 304 284 304H224V264H284C295.028 264 304 272.972 304 284ZM224 248V208H284C295.028 208 304 216.972 304 228C304 239.028 295.028 248 284 248H224Z" fill="black"/>
<path d="M376 168C380.418 168 384 164.418 384 160V139.313L404.246 119.067L436.422 135.155C437.548 135.718 438.774 136 440 136C441.226 136 442.452 135.718 443.578 135.155L491.578 111.155C494.288 109.8 496 107.03 496 104V48.0005C496 44.9705 494.288 42.2005 491.578 40.8455L443.578 16.8455C441.326 15.7195 438.675 15.7195 436.423 16.8455L388.423 40.8455C385.712 42.2005 384 44.9705 384 48.0005V104C384 107.03 385.712 109.8 388.422 111.155L389.161 111.525L372.687 128H352C347.582 128 344 131.582 344 136C344 140.418 347.582 144 352 144H356.687L329.302 171.385C311.532 155.97 288.875 146.053 264.001 144.288V123.313L266.344 125.656C267.906 127.218 269.953 127.999 272.001 127.999C274.049 127.999 276.096 127.218 277.658 125.656C280.783 122.532 280.783 117.467 277.658 114.343L264 100.687V95.1965C282.236 91.4805 296 75.3185 296 56.0015C296 33.9455 278.056 16.0015 256 16.0015C233.944 16.0015 216 33.9455 216 56.0015C216 75.3185 229.764 91.4805 248 95.1965V100.687L234.343 114.344C231.218 117.468 231.218 122.533 234.343 125.657C237.467 128.781 242.532 128.781 245.656 125.657L247.999 123.314V144.289C223.125 146.053 200.468 155.971 182.698 171.386L155.313 144H160C164.418 144 168 140.418 168 136C168 131.582 164.418 128 160 128H139.313L122.838 111.525L123.577 111.155C126.288 109.8 128 107.03 128 104V48.0005C128 44.9705 126.288 42.2005 123.578 40.8455L75.578 16.8455C73.326 15.7195 70.675 15.7195 68.423 16.8455L20.423 40.8455C17.712 42.2005 16 44.9705 16 48.0005V104C16 107.03 17.712 109.8 20.422 111.155L68.422 135.155C69.548 135.718 70.774 136 72 136C73.226 136 74.452 135.718 75.578 135.155L107.754 119.067L128 139.313V160C128 164.418 131.582 168 136 168C140.418 168 144 164.418 144 160V155.313L171.385 182.698C155.97 200.468 146.053 223.125 144.288 247.999H123.313L125.656 245.656C128.781 242.532 128.781 237.467 125.656 234.343C122.532 231.219 117.467 231.219 114.343 234.343L100.687 248H95.196C91.479 229.764 75.317 216 56 216C33.944 216 16 233.944 16 256C16 278.056 33.944 296 56 296C75.317 296 91.479 282.236 95.195 264H100.686L114.343 277.658C115.905 279.22 117.952 280 120 280C122.048 280 124.095 279.22 125.657 277.658C128.782 274.534 128.782 269.468 125.657 266.344L123.313 264H144.288C146.052 288.874 155.97 311.531 171.385 329.301L144 356.688V352C144 347.582 140.418 344 136 344C131.582 344 128 347.582 128 352V372.688L107.754 392.934L75.578 376.845C73.326 375.719 70.675 375.719 68.423 376.845L20.423 400.845C17.712 402.2 16 404.97 16 408V464C16 467.03 17.712 469.8 20.422 471.155L68.422 495.155C69.548 495.718 70.774 496 72 496C73.226 496 74.452 495.718 75.578 495.155L123.578 471.155C126.288 469.8 128 467.03 128 464V408C128 404.97 126.288 402.2 123.578 400.845L122.839 400.475L139.313 384H160C164.418 384 168 380.418 168 376C168 371.582 164.418 368 160 368H155.313L182.698 340.615C200.468 356.03 223.125 365.948 247.999 367.712V388.688L245.656 386.344C242.532 383.22 237.467 383.22 234.343 386.344C231.218 389.468 231.218 394.534 234.343 397.658L248 411.313V416.804C229.764 420.521 216 436.682 216 455.999C216 478.055 233.944 495.999 256 495.999C278.056 495.999 296 478.055 296 455.999C296 436.682 282.236 420.52 264 416.804V411.313L277.657 397.656C280.782 394.532 280.782 389.467 277.657 386.343C274.533 383.219 269.468 383.219 266.344 386.343L264 388.688V367.712C288.874 365.948 311.531 356.03 329.301 340.615L356.687 368H352C347.582 368 344 371.582 344 376C344 380.418 347.582 384 352 384H372.687L389.162 400.475L388.423 400.845C385.712 402.2 384 404.97 384 408V464C384 467.03 385.712 469.8 388.422 471.155L436.422 495.155C437.548 495.718 438.774 496 440 496C441.226 496 442.452 495.718 443.578 495.155L491.578 471.155C494.288 469.8 496 467.03 496 464V408C496 404.97 494.288 402.2 491.578 400.845L443.578 376.845C441.326 375.719 438.675 375.719 436.423 376.845L404.247 392.934L384 372.688V352C384 347.582 380.418 344 376 344C371.582 344 368 347.582 368 352V356.688L340.615 329.302C356.03 311.532 365.947 288.875 367.712 264.001H388.687L386.344 266.344C383.219 269.468 383.219 274.534 386.344 277.658C387.906 279.22 389.953 280 392.001 280C394.049 280 396.096 279.22 397.658 277.658L411.313 264H416.804C420.52 282.236 436.682 296 455.999 296C478.055 296 495.999 278.056 495.999 256C495.999 233.944 478.055 216 455.999 216C436.682 216 420.52 229.764 416.804 248H411.313L397.656 234.343C394.532 231.219 389.467 231.219 386.343 234.343C383.218 237.467 383.218 242.532 386.343 245.656L388.686 247.999H367.711C365.947 223.125 356.029 200.468 340.614 182.698L368 155.313V160C368 164.418 371.582 168 376 168ZM432 76.9445V115.056L400 99.0565V60.9445L432 76.9445ZM448 115.056V76.9445L480 60.9445V99.0565L448 115.056ZM440 32.9445L470.112 48.0005L440 63.0565L409.888 48.0005L440 32.9445ZM80 76.9445L112 60.9445V99.0565L80 115.056V76.9445ZM72 32.9445L102.112 48.0005L72 63.0565L41.888 48.0005L72 32.9445ZM32 60.9445L64 76.9445V115.056L32 99.0565V60.9445ZM56 280C42.767 280 32 269.233 32 256C32 242.767 42.767 232 56 232C69.233 232 80 242.767 80 256C80 269.233 69.233 280 56 280ZM72 392.944L102.111 408L72 423.056L41.888 408L72 392.944ZM32 420.944L64 436.944V475.056L32 459.056V420.944ZM80 475.056V436.944L112 420.944V459.056L80 475.056ZM400 420.944L432 436.944V475.056L400 459.056V420.944ZM448 475.056V436.944L480 420.944V459.056L448 475.056ZM440 392.944L470.112 408L440 423.056L409.888 408L440 392.944ZM456 232C469.233 232 480 242.767 480 256C480 269.233 469.233 280 456 280C442.767 280 432 269.233 432 256C432 242.767 442.767 232 456 232ZM232 56.0005C232 42.7675 242.767 32.0005 256 32.0005C269.233 32.0005 280 42.7675 280 56.0005C280 69.2335 269.233 80.0005 256 80.0005C242.767 80.0005 232 69.2335 232 56.0005ZM280 456C280 469.233 269.233 480 256 480C242.767 480 232 469.233 232 456C232 442.767 242.767 432 256 432C269.233 432 280 442.767 280 456ZM256 352C203.065 352 160 308.935 160 256C160 203.065 203.065 160 256 160C308.935 160 352 203.065 352 256C352 308.935 308.935 352 256 352Z" fill="black"/>
</svg>
