<svg data-v-423bf9ae="" xmlns="http://www.w3.org/2000/svg" viewBox="0 0 381 90" class="iconLeft"><!----><!----><!----><g data-v-423bf9ae="" id="6c1740d3-bb7e-4465-b772-9ad0f7ee0c0c" fill="#000000" transform="matrix(3.645200252532959,0,0,3.645200252532959,105.38951873779297,1.9866362810134888)"><path d="M5.78 4.20L5.78 4.20L5.78 4.20Q7.71 4.20 8.82 5.73L8.82 5.73L8.82 5.73Q9.93 7.25 9.93 9.56L9.93 9.56L9.93 9.56Q9.93 11.91 8.65 13.71L8.65 13.71L8.65 13.71Q8.04 14.59 6.99 15.11L6.99 15.11L6.99 15.11Q5.95 15.64 4.84 15.64L4.84 15.64L4.84 15.64Q3.72 15.64 2.88 15.40L2.88 15.40L2.88 15.40Q2.03 15.16 1.65 14.92L1.65 14.92L1.26 14.69L1.26 14.69Q1.27 14.57 1.57 12.60L1.57 12.60L1.57 12.60Q2.18 8.48 2.18 5.14L2.18 5.14L2.18 5.14Q2.18 4.03 1.99 3.57L1.99 3.57L1.99 3.57Q3.15 3.96 3.44 4.80L3.44 4.80L3.44 4.80Q4.69 4.20 5.78 4.20ZM2.88 14.45L2.88 14.45L2.88 14.45Q3.50 14.66 4.38 14.66L4.38 14.66L4.38 14.66Q5.26 14.66 6.09 14.20L6.09 14.20L6.09 14.20Q6.92 13.75 7.42 12.99L7.42 12.99L7.42 12.99Q8.46 11.47 8.46 9.55L8.46 9.55L8.46 9.55Q8.46 7.63 7.60 6.45L7.60 6.45L7.60 6.45Q6.75 5.28 5.31 5.28L5.31 5.28L5.31 5.28Q4.34 5.28 3.63 5.60L3.63 5.60L3.63 5.60Q3.63 6.47 3.25 9.97L3.25 9.97L3.25 9.97Q2.88 13.47 2.88 14.45ZM13.73 9.95L13.73 9.95L13.73 9.95Q13.33 10.65 13.11 11.39L13.11 11.39L13.11 11.39Q12.89 12.12 12.89 12.80L12.89 12.80L12.89 12.80Q12.89 13.47 13.20 13.94L13.20 13.94L13.20 13.94Q13.50 14.41 14.06 14.41L14.06 14.41L14.06 14.41Q14.84 14.41 15.53 13.55L15.53 13.55L15.53 13.55Q16.21 12.68 16.58 11.46L16.58 11.46L16.58 11.46Q16.95 10.23 16.95 9.19L16.95 9.19L16.95 9.19Q16.95 8.15 16.87 7.48L16.87 7.48L16.87 7.48Q17.21 7.45 17.29 7.45L17.29 7.45L17.29 7.45Q18.48 7.45 18.48 8.67L18.48 8.67L18.48 8.67Q18.48 8.93 18.14 10.83L18.14 10.83L18.14 10.83Q17.81 12.73 17.81 13.87L17.81 13.87L17.81 13.87Q17.81 15.01 18.24 15.89L18.24 15.89L18.24 15.89Q17.36 15.71 16.96 15.11L16.96 15.11L16.96 15.11Q16.56 14.52 16.56 13.40L16.56 13.40L16.56 13.40Q16.56 13.20 16.62 12.64L16.62 12.64L16.62 12.64Q16.24 13.97 15.29 14.78L15.29 14.78L15.29 14.78Q14.34 15.60 13.42 15.60L13.42 15.60L13.42 15.60Q12.50 15.60 11.94 14.90L11.94 14.90L11.94 14.90Q11.38 14.21 11.38 12.99L11.38 12.99L11.38 12.99Q11.38 11.76 11.84 10.59L11.84 10.59L11.84 10.59Q12.29 9.42 13.21 8.57L13.21 8.57L13.21 8.57Q14.13 7.71 15.26 7.71L15.26 7.71L15.26 7.71Q15.75 7.71 16.34 7.91L16.34 7.91L16.34 7.91Q15.51 8.12 14.83 8.68L14.83 8.68L14.83 8.68Q14.14 9.24 13.73 9.95ZM22.54 10.37L22.54 10.37Q23.11 9.07 23.99 8.38L23.99 8.38L23.99 8.38Q24.86 7.69 25.73 7.69L25.73 7.69L25.73 7.69Q26.59 7.69 27.15 8.38L27.15 8.38L27.15 8.38Q27.71 9.07 27.71 10.39L27.71 10.39L27.71 10.39Q27.71 12.47 26.61 13.95L26.61 13.95L26.61 13.95Q25.51 15.43 23.97 15.43L23.97 15.43L23.97 15.43Q23.42 15.43 22.85 15.20L22.85 15.20L22.85 15.20Q23.90 14.99 24.69 14.13L24.69 14.13L24.69 14.13Q25.48 13.27 25.84 12.29L25.84 12.29L25.84 12.29Q26.19 11.30 26.19 10.51L26.19 10.51L26.19 10.51Q26.19 9.72 25.91 9.30L25.91 9.30L25.91 9.30Q25.63 8.88 25.12 8.88L25.12 8.88L25.12 8.88Q24.15 8.88 23.39 9.95L23.39 9.95L23.39 9.95Q22.64 11.02 22.23 12.85L22.23 12.85L22.23 12.85Q21.83 14.69 21.83 16.64L21.83 16.64L21.83 16.64Q21.83 18.59 22.11 20.03L22.11 20.03L22.11 20.03Q21.25 19.99 20.76 19.66L20.76 19.66L20.76 19.66Q20.27 19.32 20.27 18.41L20.27 18.41L20.27 18.41Q20.27 18.07 20.70 14.86L20.70 14.86L20.70 14.86Q21.13 11.65 21.13 9.91L21.13 9.91L21.13 9.91Q21.13 8.18 20.92 6.99L20.92 6.99L20.92 6.99Q21.84 7.25 22.19 8.07L22.19 8.07L22.19 8.07Q22.54 8.89 22.54 10.37L22.54 10.37ZM31.63 10.37L31.63 10.37Q32.20 9.07 33.08 8.38L33.08 8.38L33.08 8.38Q33.95 7.69 34.81 7.69L34.81 7.69L34.81 7.69Q35.67 7.69 36.23 8.38L36.23 8.38L36.23 8.38Q36.79 9.07 36.79 10.39L36.79 10.39L36.79 10.39Q36.79 12.47 35.69 13.95L35.69 13.95L35.69 13.95Q34.59 15.43 33.05 15.43L33.05 15.43L33.05 15.43Q32.51 15.43 31.93 15.20L31.93 15.20L31.93 15.20Q32.98 14.99 33.77 14.13L33.77 14.13L33.77 14.13Q34.57 13.27 34.92 12.29L34.92 12.29L34.92 12.29Q35.28 11.30 35.28 10.51L35.28 10.51L35.28 10.51Q35.28 9.72 35 9.30L35 9.30L35 9.30Q34.72 8.88 34.20 8.88L34.20 8.88L34.20 8.88Q33.24 8.88 32.48 9.95L32.48 9.95L32.48 9.95Q31.72 11.02 31.32 12.85L31.32 12.85L31.32 12.85Q30.91 14.69 30.91 16.64L30.91 16.64L30.91 16.64Q30.91 18.59 31.19 20.03L31.19 20.03L31.19 20.03Q30.34 19.99 29.85 19.66L29.85 19.66L29.85 19.66Q29.36 19.32 29.36 18.41L29.36 18.41L29.36 18.41Q29.36 18.07 29.79 14.86L29.79 14.86L29.79 14.86Q30.21 11.65 30.21 9.91L30.21 9.91L30.21 9.91Q30.21 8.18 30.00 6.99L30.00 6.99L30.00 6.99Q30.93 7.25 31.28 8.07L31.28 8.07L31.28 8.07Q31.63 8.89 31.63 10.37L31.63 10.37ZM41.67 8.04L41.67 8.04L41.67 8.04Q41.20 8.04 40.83 8.33L40.83 8.33L40.83 8.33Q40.46 8.62 40.46 9.14L40.46 9.14L40.46 9.14Q40.46 9.65 40.80 10.09L40.80 10.09L40.80 10.09Q41.15 10.54 41.64 10.89L41.64 10.89L41.64 10.89Q42.13 11.24 42.63 11.61L42.63 11.61L42.63 11.61Q43.81 12.47 43.81 13.47L43.81 13.47L43.81 13.47Q43.81 14.46 43.01 15.09L43.01 15.09L43.01 15.09Q42.21 15.71 40.97 15.71L40.97 15.71L40.97 15.71Q39.73 15.71 39.05 15.22L39.05 15.22L39.05 15.22Q38.37 14.73 38.37 14.06L38.37 14.06L38.37 14.06Q38.37 13.40 38.71 13.02L38.71 13.02L38.71 13.02Q39.05 12.64 39.52 12.64L39.52 12.64L39.52 12.64Q39.77 12.64 40.00 12.75L40.00 12.75L40.00 12.75Q39.69 13.15 39.69 13.68L39.69 13.68L39.69 13.68Q39.69 14.21 40.02 14.57L40.02 14.57L40.02 14.57Q40.35 14.94 40.93 14.94L40.93 14.94L40.93 14.94Q41.51 14.94 41.92 14.64L41.92 14.64L41.92 14.64Q42.32 14.34 42.32 13.87L42.32 13.87L42.32 13.87Q42.32 13.41 42.08 13.06L42.08 13.06L42.08 13.06Q41.85 12.71 41.49 12.46L41.49 12.46L41.49 12.46Q41.13 12.21 40.71 11.90L40.71 11.90L40.71 11.90Q40.29 11.59 39.93 11.29L39.93 11.29L39.93 11.29Q39.58 10.99 39.34 10.54L39.34 10.54L39.34 10.54Q39.10 10.08 39.10 9.53L39.10 9.53L39.10 9.53Q39.10 8.54 39.86 7.90L39.86 7.90L39.86 7.90Q40.61 7.27 41.76 7.27L41.76 7.27L41.76 7.27Q42.91 7.27 43.44 7.74L43.44 7.74L43.44 7.74Q43.97 8.22 43.97 8.81L43.97 8.81L43.97 8.81Q43.97 9.41 43.68 9.79L43.68 9.79L43.68 9.79Q43.39 10.18 42.92 10.18L42.92 10.18L42.92 10.18Q42.70 10.18 42.41 10.05L42.41 10.05L42.41 10.05Q42.77 9.60 42.77 9.09L42.77 9.09L42.77 9.09Q42.77 8.57 42.45 8.30L42.45 8.30L42.45 8.30Q42.14 8.04 41.67 8.04ZM50.89 14.59L50.89 14.59L50.89 14.59Q50.76 14.25 50.76 13.65L50.76 13.65L50.76 13.65Q50.76 13.05 51.17 10.09L51.17 10.09L51.17 10.09Q51.58 7.14 51.58 5.35L51.58 5.35L51.58 5.35Q51.58 4.93 51.52 4.20L51.52 4.20L51.52 4.20Q52.58 4.26 52.85 4.70L52.85 4.70L52.85 4.70Q52.99 4.96 53.03 5.19L53.03 5.19L53.03 5.19Q53.07 5.42 53.07 5.92L53.07 5.92L53.07 5.92Q53.07 6.41 52.62 9.65L52.62 9.65L52.62 9.65Q52.16 12.89 52.15 14.27L52.15 14.27L52.15 14.27Q52.22 14.25 52.40 14.25L52.40 14.25L52.40 14.25Q55.43 14.25 56.91 13.83L56.91 13.83L56.91 13.83Q56.81 14.64 56.36 15.09L56.36 15.09L56.36 15.09Q55.90 15.54 55.22 15.54L55.22 15.54L55.22 15.54Q55.02 15.54 54.00 15.45L54.00 15.45L54.00 15.45Q52.99 15.36 52.04 15.36L52.04 15.36L52.04 15.36Q51.09 15.36 50.13 15.54L50.13 15.54L50.13 15.54Q50.32 14.92 50.89 14.59ZM59.86 15.64L59.86 15.64Q59.07 15.36 58.75 14.78L58.75 14.78L58.75 14.78Q58.44 14.20 58.44 13.37L58.44 13.37L58.44 13.37Q58.44 12.54 58.66 11.00L58.66 11.00L58.66 11.00Q58.88 9.46 58.88 8.61L58.88 8.61L58.88 8.61Q58.88 7.76 58.80 7.29L58.80 7.29L58.80 7.29Q59.05 7.27 59.21 7.27L59.21 7.27L59.21 7.27Q59.84 7.27 60.12 7.55L60.12 7.55L60.12 7.55Q60.40 7.83 60.40 8.47L60.40 8.47L60.40 8.47Q60.40 8.68 60.05 10.68L60.05 10.68L60.05 10.68Q59.71 12.67 59.70 13.96L59.70 13.96L59.70 13.96Q59.70 15.26 59.86 15.64L59.86 15.64ZM60.07 5.88L60.07 5.88L60.07 5.88Q58.90 5.88 58.90 5.08L58.90 5.08L58.90 5.08Q58.90 4.80 59.11 4.30L59.11 4.30L59.11 4.30Q59.42 4.24 59.64 4.24L59.64 4.24L59.64 4.24Q60.82 4.24 60.82 5.04L60.82 5.04L60.82 5.04Q60.82 5.32 60.61 5.82L60.61 5.82L60.61 5.82Q60.30 5.88 60.07 5.88ZM65.09 15.43L65.09 15.43L65.09 15.43Q64.75 15.62 64.34 15.62L64.34 15.62L64.34 15.62Q63.92 15.62 63.88 15.41L63.88 15.41L63.88 15.41Q63.66 14.52 63.36 12.73L63.36 12.73L63.36 12.73Q63.07 10.95 62.77 9.61L62.77 9.61L62.77 9.61Q62.47 8.27 62.05 7.59L62.05 7.59L62.05 7.59Q62.55 7.22 63.04 7.22L63.04 7.22L63.04 7.22Q63.67 7.22 63.94 7.95L63.94 7.95L63.94 7.95Q64.20 8.67 64.44 10.97L64.44 10.97L64.44 10.97Q64.68 13.27 64.86 13.96L64.86 13.96L64.86 13.96Q67.58 8.72 67.58 7.04L67.58 7.04L67.58 7.04Q68.45 7.63 68.45 8.25L68.45 8.25L68.45 8.25Q68.45 8.88 67.86 9.98L67.86 9.98L67.86 9.98Q67.28 11.07 66.41 12.64L66.41 12.64L66.41 12.64Q65.53 14.20 65.09 15.43ZM73.18 8.08L73.18 8.08L73.18 8.08Q72.34 8.08 71.76 9.04L71.76 9.04L71.76 9.04Q71.18 10.01 70.98 11.31L70.98 11.31L71.37 11.31L71.37 11.31Q72.11 11.31 72.66 11.10L72.66 11.10L72.66 11.10Q73.21 10.89 73.50 10.56L73.50 10.56L73.50 10.56Q74.06 9.91 74.06 9.10L74.06 9.10L74.06 9.10Q74.06 8.64 73.84 8.36L73.84 8.36L73.84 8.36Q73.63 8.08 73.18 8.08ZM75.15 13.75L75.15 13.75Q74.51 14.80 73.74 15.22L73.74 15.22L73.74 15.22Q72.97 15.64 71.95 15.64L71.95 15.64L71.95 15.64Q70.94 15.64 70.18 14.74L70.18 14.74L70.18 14.74Q69.43 13.85 69.43 12.22L69.43 12.22L69.43 12.22Q69.43 10.37 70.42 8.92L70.42 8.92L70.42 8.92Q70.91 8.22 71.70 7.78L71.70 7.78L71.70 7.78Q72.49 7.35 73.44 7.35L73.44 7.35L73.44 7.35Q75.54 7.35 75.54 9.38L75.54 9.38L75.54 9.38Q75.54 10.60 74.60 11.29L74.60 11.29L74.60 11.29Q73.65 11.98 72.41 11.98L72.41 11.98L72.41 11.98Q71.58 11.98 70.92 11.83L70.92 11.83L70.92 11.83Q70.91 11.97 70.91 12.26L70.91 12.26L70.91 12.26Q70.91 14.74 72.38 14.74L72.38 14.74L72.38 14.74Q73.77 14.74 74.63 13.37L74.63 13.37L74.63 13.37Q75.15 13.44 75.15 13.75L75.15 13.75Z"></path></g><defs data-v-423bf9ae=""><linearGradient data-v-423bf9ae="" gradientTransform="rotate(25)" id="b7064697-cfc9-4432-93e3-13f486c6675c" x1="0%" y1="0%" x2="100%" y2="0%"><stop data-v-423bf9ae="" offset="0%" style="stop-color: rgb(32, 72, 79); stop-opacity: 1;"></stop><stop data-v-423bf9ae="" offset="100%" style="stop-color: rgb(78, 155, 171); stop-opacity: 1;"></stop></linearGradient></defs><g data-v-423bf9ae="" id="9f6d0a1b-3fff-47c5-a78e-f04d320c07ca" transform="matrix(1.0108606815338135,0,0,1.0108606815338135,-5.050780773162842,-5.05954647064209)" stroke="none" fill="url(#b7064697-cfc9-4432-93e3-13f486c6675c)"><path d="M59.79 47.729v-7.291c0-4.908-4.303-8.9-9.59-8.9-5.284 0-9.583 3.992-9.583 8.9v7.283a6.12 6.12 0 0 0-2.386 4.786V62.57a6.538 6.538 0 0 0 6.748 6.29h10.44a6.537 6.537 0 0 0 6.748-6.29V52.507a6.107 6.107 0 0 0-2.377-4.778zm-12.852-1.513v-5.779a3.285 3.285 0 0 1 6.53 0v5.779zm-4.32-5.779c0-3.804 3.4-6.899 7.581-6.899 4.186 0 7.591 3.095 7.591 6.9v6.176c-.046-.016-.096-.022-.143-.037a6.974 6.974 0 0 0-.685-.177c-.131-.029-.258-.066-.391-.087a7.279 7.279 0 0 0-.885-.078c-.074-.003-.144-.019-.217-.02v-5.778a5.277 5.277 0 0 0-10.53 0v5.779c-.065 0-.127.014-.192.016a7.341 7.341 0 0 0-.918.08c-.125.02-.245.055-.369.081a7.007 7.007 0 0 0-.71.182c-.043.014-.09.02-.133.034zM60.166 62.57a4.542 4.542 0 0 1-4.747 4.29H44.98a4.542 4.542 0 0 1-4.749-4.29V52.507a4.181 4.181 0 0 1 1.946-3.46 4.98 4.98 0 0 1 2.803-.831h10.44a5.07 5.07 0 0 1 2.818.845 4.11 4.11 0 0 1 1.929 3.446z"></path><path d="M52.498 56.012v-1.205a2.297 2.297 0 0 0-4.589 0v1.205a3.505 3.505 0 0 0-1.515 2.862 3.817 3.817 0 0 0 7.62 0 3.506 3.506 0 0 0-1.516-2.862zm-2.29 4.453a1.715 1.715 0 0 1-1.814-1.591 1.58 1.58 0 0 1 .95-1.395.999.999 0 0 0 .565-.9v-1.772c0-.092.127-.195.298-.195.167 0 .291.103.291.195v1.772a1 1 0 0 0 .566.901 1.578 1.578 0 0 1 .95 1.394 1.712 1.712 0 0 1-1.807 1.59z"></path><path d="M90.833 35.804a3.662 3.662 0 0 0-3.512 2.668H72.528a25.365 25.365 0 0 0-4.73-6.327h11.436a1 1 0 0 0 1-1v-5.15a3.667 3.667 0 1 0-2 0v4.15h-12.75a25.251 25.251 0 0 0-5.083-3.012V20.66a3.668 3.668 0 1 0-2 0v5.686a25.074 25.074 0 0 0-7.202-1.35V12.678a3.667 3.667 0 1 0-2 0v12.316A25.256 25.256 0 0 0 24.995 49.2H12.68a3.668 3.668 0 1 0 0 2h12.316a25.074 25.074 0 0 0 1.35 7.202H20.66a3.667 3.667 0 1 0 0 2h6.473a25.251 25.251 0 0 0 3.012 5.083v12.75h-4.15a3.667 3.667 0 1 0 0 2h5.15a1 1 0 0 0 1-1V67.797a25.365 25.365 0 0 0 6.327 4.73v14.794a3.667 3.667 0 1 0 2 0V73.477a25.058 25.058 0 0 0 8.727 1.927v5.58a3.668 3.668 0 1 0 2 0v-5.58A25.256 25.256 0 0 0 75.404 51.2h5.58a3.667 3.667 0 1 0 0-2h-5.58a25.058 25.058 0 0 0-1.927-8.727H87.32a3.66 3.66 0 1 0 3.512-4.668zm-13.266-13.32a1.667 1.667 0 1 1 1.88 1.646.55.55 0 0 0-.426 0 1.664 1.664 0 0 1-1.454-1.646zM57.733 17.15a1.667 1.667 0 1 1 1.668 1.667 1.67 1.67 0 0 1-1.668-1.667zM17.15 61.07a1.667 1.667 0 1 1 1.667-1.668 1.67 1.67 0 0 1-1.667 1.667zM22.484 80.9a1.667 1.667 0 1 1 1.646-1.88.55.55 0 0 0 0 .426 1.664 1.664 0 0 1-1.646 1.454zm18.655 9.932a1.667 1.667 0 1 1-1.667-1.668 1.67 1.67 0 0 1 1.667 1.668zm7.393-81.666a1.667 1.667 0 1 1 1.667 1.668 1.67 1.67 0 0 1-1.667-1.668zm-39.365 42.7a1.667 1.667 0 1 1 1.668-1.668 1.67 1.67 0 0 1-1.668 1.668zm42.7 32.628a1.667 1.667 0 1 1-1.668-1.668 1.67 1.67 0 0 1 1.668 1.668zM50.2 73.43A23.23 23.23 0 1 1 73.43 50.2 23.256 23.256 0 0 1 50.2 73.43zm34.296-24.898a1.667 1.667 0 1 1-1.668 1.667 1.67 1.67 0 0 1 1.668-1.667zm6.338-7.393a1.667 1.667 0 1 1 1.667-1.667 1.67 1.67 0 0 1-1.667 1.667z"></path></g><!----></svg>